<?xml version="1.0" encoding="utf-8"?>
<!-- Generator: Adobe Adobe Illustrator 24.2.0, SVG Export Plug-In . SVG Version: 6.00 Build 0)  -->
<svg version="1.1" xmlns="http://www.w3.org/2000/svg" xmlns:xlink="http://www.w3.org/1999/xlink" x="0px" y="0px"
	 viewBox="0 0 446 386" style="enable-background:new 0 0 446 386;" xml:space="preserve">
<style type="text/css">
	.st0{fill:#730202;}
</style>
<g id="Layer_1">
	<path d="M63.21,168.12c-11.55,16.77-50.84,63.63-50.84,63.63l34.11-8.05l76.79-17.52c0,0,6.77,21.97,5.95,29.43
		c-3.87,34.88-76.56,91.11-65.71,124.58c5.48,16.89,51.16,15.97,68.91,15.65c21.17-0.38,62.62-2.37,76.21-16.64
		c8.71-9.14,16.18-41.88,13.22-54.15c-3.81-15.77-12.48-34.79-23.83-46.38c-8.36-8.55-38.81-16.92-44.83-25.92
		c-11.95-17.87-32.3-57.27-37.65-78.01c-2.19-8.5,1.77-22.18,7.19-29.08c6.14-7.83,26.52-6.1,36.17-7.27
		c11.55-1.4,41.23,7.86,50.09,15.41c45.31,38.62,44.22,48.3,44.22,48.3c5.59,11.57,6.22,53.23,15.73,61.87
		c15.71,14.27,63.43,8.81,84.64,9.25c17.22,0.36,51.74-5.07,65-16.07c12.85-10.66,19.65-44.58,11.55-59.18
		c-5-9-24.75-16.45-35.02-15.7c-12.55,0.91-34.58,15.36-46.69,18.8c-12.35,3.51-43.36-4.53-54.23-11.36
		c-17.47-10.97-27.96-42.05-38.83-59.88c0,0,42.21,29.02,58.2,34.56c9.32,3.23,29.44,7.08,39.11,5.15
		c10.94-2.18,29.68-10.06,33.02-20.7c2.65-8.48-0.59-25.91-7.55-31.44c-13.26-10.52-36.78-15.21-37.29-15.26
		c-12.75-1.26-39.39-1.85-51.21-1.85c-2.77,0-22.75-8.11-2.71-13.34c15.23-3.97,42.63-3.87,54.38-11.76
		c3.66-2.46,12.72-12.53,12.4-17.32c-0.47-7.01-7.27-15.39-13.47-18.69c-15.85-8.44-55.22,6.69-69.72,17.28
		c-7.43,5.43-25.75,26.45-25.75,26.45c-0.51,0.51-1.13,0.91-1.8,1.17l-78.29,30.33l-74.34,29.79c-1.19,0.47-2.16,1.36-2.75,2.49
		C87.58,126.7,70.03,158.23,63.21,168.12z"/>
</g>
<g id="Layer_3">
</g>
<g id="Layer_2">
	<path class="st0" d="M54.29,138.37c-19.75-7.26,58.97-34.08,58.97-34.08S86.51,56.13,93.71,39.09
		c7.2-17.05,14.41-13.81,30.59-17.04c17.27-3.45,34.83-20.67,48.1-7.44c11.86,11.82,23.87,64.76,23.87,64.76s74.86-22.56,70.19-7.43
		c-1.1,3.55-84.15,27.36-102.67,33.27C145.85,110.92,58.47,139.91,54.29,138.37z"/>
</g>
</svg>
